<svg width="39" height="71" viewBox="0 0 39 71" fill="none" xmlns="http://www.w3.org/2000/svg">
<rect width="5" height="67" fill="#34A853"/>
<path d="M36.6667 46.5H13.3333C12.0617 46.5467 11.0467 47.5617 11 48.8333V65.1667C11.0467 66.4383 12.0617 67.4533 13.3333 67.5H36.6667C37.9383 67.4533 38.9533 66.4383 39 65.1667V48.8333C38.9533 47.5617 37.9383 46.5467 36.6667 46.5ZM36.6667 65.1667H13.3333V48.8333H36.6667V65.1667ZM27.3333 62.8333V61.375C27.3333 59.4383 23.4367 58.4583 21.5 58.4583C19.5633 58.4583 15.6667 59.4383 15.6667 61.375V62.8333H27.3333ZM21.5 51.1667C20.7265 51.1667 19.9846 51.474 19.4376 52.0209C18.8906 52.5679 18.5833 53.3098 18.5833 54.0833C18.5833 54.4664 18.6588 54.8456 18.8054 55.1995C18.9519 55.5534 19.1668 55.8749 19.4376 56.1457C19.9846 56.6927 20.7265 57 21.5 57C21.883 57 22.2623 56.9246 22.6162 56.778C22.97 56.6314 23.2916 56.4166 23.5624 56.1457C23.8332 55.8749 24.0481 55.5534 24.1946 55.1995C24.3412 54.8456 24.4167 54.4664 24.4167 54.0833C24.4167 53.7003 24.3412 53.321 24.1946 52.9672C24.0481 52.6133 23.8332 52.2918 23.5624 52.0209C23.2916 51.7501 22.97 51.5353 22.6162 51.3887C22.2623 51.2421 21.883 51.1667 21.5 51.1667ZM27.3333 51.1667V52.3333H34.3333V51.1667H27.3333ZM27.3333 53.5V54.6667H34.3333V53.5H27.3333ZM27.3333 55.8333V57H32V55.8333H27.3333Z" fill="#34A853"/>
</svg>
