<svg width="39" height="72" viewBox="0 0 39 72" fill="none" xmlns="http://www.w3.org/2000/svg">
<rect width="5" height="67" fill="#EB4335"/>
<path d="M19.1667 58C21.7333 58 23.8333 55.9 23.8333 53.3333C23.8333 50.7667 21.7333 48.6667 19.1667 48.6667C16.6 48.6667 14.5 50.7667 14.5 53.3333C14.5 55.9 16.6 58 19.1667 58ZM23.8333 67.3333V61.15C22.55 60.6833 20.9167 60.3333 19.1667 60.3333C14.6167 60.3333 11 62.4333 11 65V67.3333H23.8333ZM36.6667 48.6667H28.5C27.2167 48.6667 26.1667 49.7167 26.1667 51V65C26.1667 66.2833 27.2167 67.3333 28.5 67.3333H36.6667C37.95 67.3333 39 66.2833 39 65V51C39 49.7167 37.95 48.6667 36.6667 48.6667ZM32 65H29.6667V51H32V65Z" fill="#EB4335"/>
</svg>
