<svg width="36" height="36" viewBox="0 0 36 36" fill="none" xmlns="http://www.w3.org/2000/svg">
<path d="M7.85 19.75C8.55 22.9 10.3 25.525 14.5 26.4V30.845C11 32.21 11 35.5 11 35.5H20.1L14.85 23.25L21.85 14.5L15.725 4H11C11 2.25 9.075 0.5 7.5 0.5H0.5V16.25C0.5 18 2.25 19.75 4 19.75H7.85ZM7.5 16.25H4V4H7.5V16.25ZM28.15 19.75H32C33.75 19.75 35.5 18 35.5 16.25V0.5H28.5C26.925 0.5 25 2.25 25 4H21.325L26.225 14.5L18.35 23.25L20.1 35.5H25C25 35.5 25 32.21 21.5 30.845V26.4875C25.6825 25.6125 27.625 22.725 28.15 19.75ZM32 16.25H28.5V4H32V16.25Z" fill="#DCE95B"/>
</svg>
