<svg width="103" height="95" viewBox="0 0 103 95" fill="none" xmlns="http://www.w3.org/2000/svg">
<circle cx="50" cy="65" r="28.5" fill="#E5F358" stroke="#6F6F6F" stroke-width="3"/>
<path d="M10.1182 34.1328L2.54382 28.2281L4.49771 25.7217L9.21676 27.6609C9.39105 27.7257 9.5911 27.8107 9.81691 27.9157C10.0427 28.0207 10.2685 28.1258 10.4944 28.2308C10.7185 28.3227 10.9157 28.4114 11.0859 28.4967L11.1548 28.4083C11.0411 28.2961 10.914 28.1555 10.7734 27.9868C10.6254 27.8122 10.4692 27.6254 10.3049 27.4263C10.1406 27.2272 9.98652 27.0302 9.84267 26.8352L6.82172 22.7405L8.74118 20.2783L16.3156 26.183L15.0503 27.8061L11.4618 25.0087C11.1306 24.7505 10.7993 24.4922 10.4681 24.234C10.1352 23.9627 9.84653 23.7258 9.602 23.5233C9.3632 23.3135 9.207 23.1799 9.13339 23.1225L9.06453 23.2109C9.13403 23.2887 9.25624 23.4431 9.43116 23.6742C9.60445 23.8921 9.78674 24.1289 9.978 24.3845C10.175 24.6328 10.3418 24.8515 10.4782 25.0407L13.7419 29.4844L12.623 30.9198L7.51972 28.8586C7.33071 28.7823 7.1102 28.6932 6.85819 28.5914C6.60456 28.4766 6.34724 28.3588 6.08625 28.2382C5.82363 28.1045 5.59413 27.9966 5.39776 27.9145L5.3289 28.0028C5.53339 28.1504 5.77836 28.3295 6.06381 28.5402C6.3419 28.7452 6.63103 28.9587 6.93121 29.1809C7.22402 29.3973 7.49189 29.6002 7.7348 29.7896L11.3232 32.587L10.1182 34.1328Z" fill="white"/>
<path d="M23.5868 20.8572C22.7544 21.4419 21.9318 21.7973 21.1192 21.9232C20.3067 22.0492 19.5281 21.9231 18.7835 21.5451C18.0389 21.167 17.3474 20.5236 16.709 19.6147C16.0599 18.6906 15.6865 17.818 15.5888 16.997C15.4858 16.1683 15.634 15.3969 16.0335 14.6829C16.4276 13.9612 17.041 13.308 17.8734 12.7232C18.7212 12.1278 19.5476 11.7697 20.3525 11.6492C21.1597 11.5156 21.9356 11.6378 22.6802 12.0158C23.4194 12.3862 24.1136 13.0335 24.7627 13.9577C25.4011 14.8665 25.7719 15.7353 25.8749 16.564C25.9779 17.3926 25.8324 18.1678 25.4382 18.8895C25.0517 19.6058 24.4346 20.2617 23.5868 20.8572ZM22.6051 19.4595C22.9793 19.1966 23.2702 18.9125 23.4777 18.6071C23.6852 18.3017 23.8093 17.975 23.85 17.627C23.8907 17.279 23.8534 16.9174 23.7381 16.5422C23.6175 16.1593 23.4177 15.7693 23.1387 15.3721L22.8892 15.017C22.6049 14.6122 22.3031 14.2881 21.9839 14.0447C21.6646 13.8013 21.3371 13.6436 21.0013 13.5715C20.6602 13.4918 20.3108 13.4977 19.9531 13.5893C19.5954 13.6808 19.2294 13.858 18.8552 14.1209C18.4886 14.3784 18.2015 14.6599 17.9941 14.9653C17.7866 15.2707 17.6625 15.5974 17.6218 15.9454C17.5757 16.2857 17.613 16.6473 17.7336 17.0302C17.8619 17.4077 18.0682 17.7988 18.3526 18.2036L18.602 18.5588C18.881 18.9559 19.1763 19.2789 19.4879 19.5276C19.8017 19.7634 20.1293 19.9211 20.4704 20.0009C20.8116 20.0806 21.161 20.0747 21.5187 19.9831C21.8764 19.8916 22.2385 19.717 22.6051 19.4595Z" fill="white"/>
<path d="M32.2718 15.763L29.2868 6.63464L34.2901 4.99851C34.9643 4.77804 35.5623 4.71504 36.0842 4.80952C36.6149 4.90109 37.0623 5.12795 37.4262 5.49011C37.7872 5.8434 38.0591 6.29948 38.2418 6.85836C38.4362 7.45272 38.4757 8.02406 38.3605 8.57238C38.2423 9.11184 37.9695 9.584 37.5422 9.98887L40.6018 13.039L38.4062 13.757L35.7082 10.9568L33.1667 11.788L34.2545 15.1146L32.2718 15.763ZM32.6532 10.2178L35.4077 9.31704C35.8069 9.1865 36.0782 8.9652 36.2216 8.65316C36.3622 8.33225 36.3643 7.96332 36.2279 7.54638C36.1409 7.28025 36.0182 7.07 35.8597 6.91561C35.6983 6.75236 35.5084 6.6524 35.2902 6.61574C35.072 6.57908 34.8254 6.60571 34.5504 6.69564L31.796 7.59638L32.6532 10.2178Z" fill="white"/>
<path d="M45.3767 12.2291L45.1262 2.62838L52.7955 2.4282L52.8401 4.13562L47.27 4.281L47.3259 6.42228L52.2522 6.2937L52.2964 7.98712L47.3701 8.1157L47.4311 10.4529L53.0852 10.3053L53.1301 12.0267L45.3767 12.2291Z" fill="white"/>
<path d="M59.0032 12.3577L65.1809 4.1277L67.6591 4.83103L68.5924 15.0793L66.4241 14.4638L66.2802 12.4584L62.2532 11.3154L61.0772 12.9463L59.0032 12.3577ZM63.291 9.86364L66.1597 10.6778L65.9842 8.16855C65.9763 8.05959 65.9645 7.93012 65.9489 7.78015C65.9447 7.62375 65.94 7.45261 65.9345 7.26672C65.9291 7.08084 65.9223 6.89944 65.9143 6.72253C65.9178 6.5392 65.9163 6.37382 65.9096 6.2264L65.8288 6.20346C65.7355 6.36132 65.6198 6.54677 65.4817 6.75983C65.3462 6.96391 65.2119 7.16351 65.0789 7.35861C64.9485 7.54473 64.8417 7.69876 64.7586 7.8207L63.291 9.86364Z" fill="white"/>
<path d="M75.4647 18.2417L80.9071 10.3286L84.1369 12.55C84.9598 13.1159 85.5617 13.7395 85.9428 14.4207C86.3239 15.1019 86.4672 15.8405 86.3728 16.6365C86.2915 17.4301 85.9387 18.2806 85.3146 19.1881C84.6958 20.0878 84.0278 20.7215 83.3105 21.0891C82.6009 21.462 81.8599 21.5923 81.0875 21.4802C80.315 21.368 79.5174 21.029 78.6946 20.4631L75.4647 18.2417ZM78.1593 18.005L79.6588 19.0363C80.0049 19.2743 80.3469 19.4359 80.6848 19.5211C81.0227 19.6062 81.3462 19.6135 81.6553 19.5429C81.9697 19.4646 82.2735 19.311 82.5668 19.0823C82.8653 18.8458 83.1495 18.5315 83.4192 18.1393L83.6572 17.7933C83.927 17.4011 84.1162 17.0271 84.2249 16.6714C84.3389 16.3081 84.3735 15.9694 84.3289 15.6555C84.2895 15.3339 84.1697 15.0306 83.9693 14.7455C83.7741 14.4527 83.5036 14.1873 83.1575 13.9493L81.6579 12.918L78.1593 18.005Z" fill="white"/>
<path d="M89.7709 30.9757C89.4266 30.5341 89.1436 30.0801 88.9221 29.6137C88.7006 29.1474 88.565 28.685 88.5154 28.2267C88.4788 27.7699 88.5389 27.3385 88.6957 26.9323C88.8655 26.5277 89.1638 26.159 89.5908 25.8262C89.6276 25.7975 89.6644 25.7688 89.7012 25.7401C89.7454 25.7057 89.7814 25.6835 89.8092 25.6737L91.0831 27.3078C91.0553 27.3177 91.0229 27.3369 90.9861 27.3656C90.9493 27.3943 90.9162 27.4201 90.8868 27.4431C90.6512 27.6267 90.5012 27.8442 90.4369 28.0956C90.3782 28.3543 90.4059 28.6404 90.5201 28.9538C90.6342 29.2672 90.8204 29.5895 91.0786 29.9207C91.245 30.1342 91.4024 30.3133 91.5507 30.458C91.7121 30.6044 91.8637 30.7229 92.0054 30.8136C92.1602 30.9059 92.3023 30.9668 92.4317 30.9961C92.5668 31.0328 92.6929 31.0351 92.8099 31.003C92.9327 30.9783 93.0492 30.923 93.1597 30.8369C93.3584 30.6819 93.4687 30.4895 93.4905 30.2594C93.5181 30.0367 93.4871 29.7769 93.3976 29.4798C93.3138 29.1901 93.1996 28.8767 93.0552 28.5396C92.9107 28.2025 92.7606 27.8581 92.6046 27.5063C92.4561 27.1487 92.328 26.787 92.2203 26.4212C92.1201 26.0497 92.0648 25.6904 92.0546 25.3433C92.0444 24.9963 92.1128 24.6589 92.2598 24.3313C92.4067 24.0037 92.6569 23.7022 93.0102 23.4268C93.3856 23.1341 93.7698 22.9589 94.1626 22.9012C94.5612 22.8508 94.9607 22.9003 95.3612 23.0497C95.7617 23.199 96.1487 23.4298 96.5223 23.7421C96.9033 24.0487 97.2659 24.4228 97.6102 24.8644C97.9316 25.2766 98.1915 25.7012 98.3901 26.1381C98.5961 26.5693 98.7161 26.9964 98.7501 27.4196C98.7841 27.8428 98.7215 28.2407 98.5623 28.6133C98.4089 28.9933 98.1407 29.3325 97.758 29.6309L97.6255 29.7342L96.3774 28.1332L96.4657 28.0643C96.6645 27.9094 96.7879 27.7185 96.8359 27.4917C96.884 27.2649 96.8653 27.0132 96.7798 26.7366C96.6944 26.4601 96.5398 26.1782 96.316 25.8912C96.075 25.582 95.8389 25.34 95.6079 25.165C95.3826 24.9975 95.1652 24.9007 94.9556 24.8747C94.7591 24.8504 94.5835 24.8985 94.429 25.019C94.2523 25.1567 94.1539 25.334 94.1336 25.551C94.1265 25.7696 94.1649 26.0237 94.2487 26.3134C94.3456 26.6047 94.47 26.916 94.6218 27.2474C94.7736 27.5787 94.9238 27.9232 95.0723 28.2808C95.2209 28.6383 95.349 29 95.4566 29.3658C95.5643 29.7316 95.6195 30.0909 95.6224 30.4437C95.6326 30.7908 95.5679 31.1252 95.4282 31.4471C95.2886 31.7689 95.0495 32.0618 94.7109 32.3258C94.1294 32.7791 93.5529 33.0037 92.9816 32.9994C92.4102 32.9951 91.8542 32.8132 91.3135 32.4536C90.7728 32.094 90.2586 31.6014 89.7709 30.9757Z" fill="white"/>
<path d="M56.9067 59.6667H43.0933C42.04 59.6667 41.4 60.8267 41.9733 61.72L48.88 72.5733C49.0002 72.7633 49.1666 72.9199 49.3636 73.0283C49.5606 73.1368 49.7818 73.1936 50.0067 73.1936C50.2315 73.1936 50.4527 73.1368 50.6497 73.0283C50.8467 72.9199 51.0131 72.7633 51.1333 72.5733L58.0267 61.72C58.1567 61.5189 58.2301 61.2864 58.2391 61.0471C58.248 60.8077 58.1922 60.5704 58.0775 60.3601C57.9628 60.1499 57.7935 59.9745 57.5874 59.8524C57.3814 59.7303 57.1462 59.6662 56.9067 59.6667Z" fill="#101010"/>
</svg>
