<svg width="103" height="95" viewBox="0 0 103 95" fill="none" xmlns="http://www.w3.org/2000/svg">
<circle cx="50" cy="65" r="28.5" fill="#E5F358" stroke="#6F6F6F" stroke-width="3"/>
<path d="M10.1182 34.1328L2.54382 28.2281L3.72304 26.7154L10.184 26.8528C10.27 26.8488 10.3866 26.8509 10.5339 26.8593C10.6739 26.8619 10.811 26.8682 10.9453 26.8782C11.0795 26.8881 11.181 26.9022 11.2497 26.9203L11.2928 26.8651C11.1676 26.7675 11.0462 26.6728 10.9284 26.581C10.8033 26.4835 10.6928 26.3974 10.5972 26.3228L6.51185 23.138L7.7255 21.5812L15.2999 27.4859L14.1207 28.9986L7.50868 28.85C7.34825 28.8433 7.1739 28.8316 6.98564 28.8151C6.79739 28.7985 6.65579 28.7828 6.56085 28.7679L6.51781 28.8231C6.62822 28.9092 6.73864 28.9953 6.84905 29.0814C6.9521 29.1617 7.05148 29.2392 7.14717 29.3138L11.3318 32.576L10.1182 34.1328Z" fill="white"/>
<path d="M19.8243 23.2947L14.304 15.4358L20.582 11.026L21.5638 12.4237L17.0042 15.6264L18.2354 17.3792L22.268 14.5466L23.2417 15.9328L19.2091 18.7654L20.5529 20.6786L25.1813 17.4276L26.171 18.8367L19.8243 23.2947Z" fill="white"/>
<path d="M33.7755 15.2713L28.3952 6.92618L30.4977 6.23866L33.6081 11.2459C33.6608 11.3171 33.7266 11.4281 33.8054 11.5791C33.8813 11.7212 33.9601 11.8722 34.0419 12.032C34.1236 12.1919 34.1951 12.3354 34.2564 12.4627L34.3229 12.4409C34.3087 12.3375 34.2858 12.2223 34.254 12.0952C34.2311 11.9652 34.2097 11.8397 34.1898 11.7185C34.1758 11.5856 34.1602 11.4631 34.1432 11.3508C34.135 11.2356 34.1251 11.1456 34.1137 11.0806L33.5715 5.23349L35.9401 4.45894L38.9839 9.48795C39.0395 9.56796 39.1053 9.67902 39.1812 9.82112C39.2572 9.96323 39.336 10.1142 39.4177 10.2741C39.4995 10.4339 39.571 10.5775 39.6322 10.7047L39.6987 10.683C39.6846 10.5796 39.6675 10.4673 39.6475 10.3462C39.6364 10.2222 39.6209 10.0996 39.6009 9.97847C39.5869 9.84557 39.5758 9.72155 39.5676 9.60639C39.5594 9.49124 39.5512 9.39084 39.5428 9.3052L39.0804 3.43201L40.9833 2.80976L41.5598 12.7257L39.2977 13.4654L36.1175 8.28953C36.0502 8.17404 35.9728 8.04226 35.8851 7.89418C35.8033 7.73434 35.7231 7.57892 35.6442 7.42795C35.5654 7.27697 35.4968 7.14229 35.4384 7.02389L35.3852 7.0413C35.4081 7.1713 35.4338 7.32492 35.4623 7.50217C35.4997 7.67653 35.5267 7.84934 35.5434 8.02063C35.569 8.18901 35.5874 8.33521 35.5985 8.45924L36.1041 14.5098L33.7755 15.2713Z" fill="white"/>
<path d="M59.0032 12.3577L65.1809 4.1277L67.6591 4.83103L68.5924 15.0793L66.4241 14.4638L66.2802 12.4584L62.2532 11.3154L61.0772 12.9463L59.0032 12.3577ZM63.291 9.86364L66.1597 10.6778L65.9842 8.16855C65.9763 8.05959 65.9645 7.93012 65.9489 7.78015C65.9447 7.62375 65.94 7.45261 65.9345 7.26672C65.9291 7.08084 65.9223 6.89944 65.9143 6.72253C65.9178 6.5392 65.9163 6.37382 65.9096 6.2264L65.8288 6.20346C65.7355 6.36132 65.6198 6.54677 65.4817 6.75983C65.3462 6.96391 65.2119 7.16351 65.0789 7.35861C64.9485 7.54473 64.8417 7.69876 64.7586 7.8207L63.291 9.86364Z" fill="white"/>
<path d="M75.4647 18.2417L80.9071 10.3286L84.1369 12.55C84.9598 13.1159 85.5617 13.7395 85.9428 14.4207C86.3239 15.1019 86.4672 15.8405 86.3728 16.6365C86.2915 17.4301 85.9387 18.2806 85.3146 19.1881C84.6958 20.0878 84.0278 20.7215 83.3105 21.0891C82.6009 21.462 81.8599 21.5923 81.0875 21.4802C80.315 21.368 79.5174 21.029 78.6946 20.4631L75.4647 18.2417ZM78.1593 18.005L79.6588 19.0363C80.0049 19.2743 80.3469 19.4359 80.6848 19.5211C81.0227 19.6062 81.3462 19.6135 81.6553 19.5429C81.9697 19.4646 82.2735 19.311 82.5668 19.0823C82.8653 18.8458 83.1495 18.5315 83.4192 18.1393L83.6572 17.7933C83.927 17.4011 84.1162 17.0271 84.2249 16.6714C84.3389 16.3081 84.3735 15.9694 84.3289 15.6555C84.2895 15.3339 84.1697 15.0306 83.9693 14.7455C83.7741 14.4527 83.5036 14.1873 83.1575 13.9493L81.6579 12.918L78.1593 18.005Z" fill="white"/>
<path d="M89.7709 30.9757C89.4266 30.5341 89.1436 30.0801 88.9221 29.6137C88.7006 29.1474 88.565 28.685 88.5154 28.2267C88.4788 27.7699 88.5389 27.3385 88.6957 26.9323C88.8655 26.5277 89.1638 26.159 89.5908 25.8262C89.6276 25.7975 89.6644 25.7688 89.7012 25.7401C89.7454 25.7057 89.7814 25.6835 89.8092 25.6737L91.0831 27.3078C91.0553 27.3177 91.0229 27.3369 90.9861 27.3656C90.9493 27.3943 90.9162 27.4201 90.8868 27.4431C90.6512 27.6267 90.5012 27.8442 90.4369 28.0956C90.3782 28.3543 90.4059 28.6404 90.5201 28.9538C90.6342 29.2672 90.8204 29.5895 91.0786 29.9207C91.245 30.1342 91.4024 30.3133 91.5507 30.458C91.7121 30.6044 91.8637 30.7229 92.0054 30.8136C92.1602 30.9059 92.3023 30.9668 92.4317 30.9961C92.5668 31.0328 92.6929 31.0351 92.8099 31.003C92.9327 30.9783 93.0492 30.923 93.1597 30.8369C93.3584 30.6819 93.4687 30.4895 93.4905 30.2594C93.5181 30.0367 93.4871 29.7769 93.3976 29.4798C93.3138 29.1901 93.1996 28.8767 93.0552 28.5396C92.9107 28.2025 92.7606 27.8581 92.6046 27.5063C92.4561 27.1487 92.328 26.787 92.2203 26.4212C92.1201 26.0497 92.0648 25.6904 92.0546 25.3433C92.0444 24.9963 92.1128 24.6589 92.2598 24.3313C92.4067 24.0037 92.6569 23.7022 93.0102 23.4268C93.3856 23.1341 93.7698 22.9589 94.1626 22.9012C94.5612 22.8508 94.9607 22.9003 95.3612 23.0497C95.7617 23.199 96.1487 23.4298 96.5223 23.7421C96.9033 24.0487 97.2659 24.4228 97.6102 24.8644C97.9316 25.2766 98.1915 25.7012 98.3901 26.1381C98.5961 26.5693 98.7161 26.9964 98.7501 27.4196C98.7841 27.8428 98.7215 28.2407 98.5623 28.6133C98.4089 28.9933 98.1407 29.3325 97.758 29.6309L97.6255 29.7342L96.3774 28.1332L96.4657 28.0643C96.6645 27.9094 96.7879 27.7185 96.8359 27.4917C96.884 27.2649 96.8653 27.0132 96.7798 26.7366C96.6944 26.4601 96.5398 26.1782 96.316 25.8912C96.075 25.582 95.8389 25.34 95.6079 25.165C95.3826 24.9975 95.1652 24.9007 94.9556 24.8747C94.7591 24.8504 94.5835 24.8985 94.429 25.019C94.2523 25.1567 94.1539 25.334 94.1336 25.551C94.1265 25.7696 94.1649 26.0237 94.2487 26.3134C94.3456 26.6047 94.47 26.916 94.6218 27.2474C94.7736 27.5787 94.9238 27.9232 95.0723 28.2808C95.2209 28.6383 95.349 29 95.4566 29.3658C95.5643 29.7316 95.6195 30.0909 95.6224 30.4437C95.6326 30.7908 95.5679 31.1252 95.4282 31.4471C95.2886 31.7689 95.0495 32.0618 94.7109 32.3258C94.1294 32.7791 93.5529 33.0037 92.9816 32.9994C92.4102 32.9951 91.8542 32.8132 91.3135 32.4536C90.7728 32.094 90.2586 31.6014 89.7709 30.9757Z" fill="white"/>
<path d="M56.9067 59.6667H43.0933C42.04 59.6667 41.4 60.8267 41.9733 61.72L48.88 72.5733C49.0002 72.7633 49.1666 72.9199 49.3636 73.0283C49.5606 73.1368 49.7818 73.1936 50.0067 73.1936C50.2315 73.1936 50.4527 73.1368 50.6497 73.0283C50.8467 72.9199 51.0131 72.7633 51.1333 72.5733L58.0267 61.72C58.1567 61.5189 58.2301 61.2864 58.2391 61.0471C58.248 60.8077 58.1922 60.5704 58.0775 60.3601C57.9628 60.1499 57.7935 59.9745 57.5874 59.8524C57.3814 59.7303 57.1462 59.6662 56.9067 59.6667Z" fill="#101010"/>
</svg>
