<svg width="22" height="24" viewBox="0 0 22 24" fill="none" xmlns="http://www.w3.org/2000/svg">
<path d="M8.66667 17.8334V14.3334H0.5V9.66671H8.66667V6.16671L14.5 12L8.66667 17.8334ZM8.66667 0.333374H19.1667C19.7855 0.333374 20.379 0.579207 20.8166 1.01679C21.2542 1.45438 21.5 2.04787 21.5 2.66671V21.3334C21.5 21.9522 21.2542 22.5457 20.8166 22.9833C20.379 23.4209 19.7855 23.6667 19.1667 23.6667H8.66667C8.04783 23.6667 7.45434 23.4209 7.01675 22.9833C6.57917 22.5457 6.33333 21.9522 6.33333 21.3334V19H8.66667V21.3334H19.1667V2.66671H8.66667V5.00004H6.33333V2.66671C6.33333 2.04787 6.57917 1.45438 7.01675 1.01679C7.45434 0.579207 8.04783 0.333374 8.66667 0.333374Z" fill="#101010"/>
</svg>
