<svg width="39" height="71" viewBox="0 0 39 71" fill="none" xmlns="http://www.w3.org/2000/svg">
<rect width="5" height="67" fill="#017EC3"/>
<path d="M14.5 43V46.5H11V48.8333H14.5V52.3333H16.8333V48.8333H20.3333V46.5H16.8333V43H14.5ZM21.5 46.5V50H18V53.5H14.5V65.1667C14.5 66.45 15.5383 67.5 16.8333 67.5H33.1667C34.4617 67.5 35.5 66.4617 35.5 65.1667V64H25C23.7167 64 22.6667 62.9617 22.6667 61.6667V52.3333C22.6667 51.05 23.705 50 25 50H35.5V48.8333C35.5 47.55 34.4617 46.5 33.1667 46.5H21.5ZM25 52.3333V61.6667H36.6667V52.3333H25ZM29.6667 55.25C30.635 55.25 31.4167 56.0317 31.4167 57C31.4167 57.9683 30.635 58.75 29.6667 58.75C28.6983 58.75 27.9167 57.9683 27.9167 57C27.9167 56.0317 28.6983 55.25 29.6667 55.25Z" fill="#017EC3"/>
</svg>
