<svg width="38" height="34" viewBox="0 0 38 34" fill="none" xmlns="http://www.w3.org/2000/svg">
<path d="M31.3875 28.6125L32.6125 27.3875L29.375 24.15V19.25H27.625V24.85L31.3875 28.6125ZM19.75 10.5H32V3.5H19.75V10.5ZM28.5 33.25C26.0792 33.25 24.0153 32.3966 22.3085 30.6898C20.6017 28.9829 19.7488 26.9197 19.75 24.5C19.75 22.0792 20.6034 20.0153 22.3103 18.3085C24.0171 16.6017 26.0803 15.7488 28.5 15.75C30.9208 15.75 32.9847 16.6034 34.6915 18.3103C36.3983 20.0171 37.2512 22.0803 37.25 24.5C37.25 26.9208 36.3966 28.9847 34.6898 30.6915C32.9829 32.3983 30.9197 33.2512 28.5 33.25ZM4 28C3.0375 28 2.21325 27.657 1.52725 26.971C0.841253 26.285 0.498836 25.4613 0.500003 24.5V3.5C0.500003 2.5375 0.843003 1.71325 1.529 1.02725C2.215 0.341253 3.03867 -0.0011637 4 2.97114e-06H32C32.9625 2.97114e-06 33.7868 0.343003 34.4728 1.029C35.1588 1.715 35.5012 2.53867 35.5 3.5V14.4813C34.4792 13.7521 33.3633 13.1979 32.1523 12.8188C30.9413 12.4396 29.7093 12.25 28.4563 12.25C25.0729 12.25 22.1924 13.4458 19.8148 15.8375C17.4371 18.2292 16.2488 21.1167 16.25 24.5C16.25 25.1125 16.2938 25.7104 16.3813 26.2938C16.4688 26.8771 16.6 27.4458 16.775 28H4Z" fill="#1B1B1B"/>
</svg>
